<svg id="v_bottom_align" xmlns="http://www.w3.org/2000/svg" viewBox="0 0 25.392 25.392">
  <defs>
    <style>
      .cls-1 {
        fill: #fff;
      }

      .cls-1, .cls-2 {
        stroke: #707070;
        stroke-width: 2px;
      }

      .cls-2 {
        fill: #707070;
      }

      .cls-3 {
        stroke: none;
      }

      .cls-4 {
        fill: none;
      }
    </style>
  </defs>
  <g id="Rectangle_21" data-name="Rectangle 21" class="cls-1">
    <rect class="cls-3" width="25.392" height="25.392" rx="4"/>
    <rect class="cls-4" x="1" y="1" width="23.392" height="23.392" rx="3"/>
  </g>
  <g id="Rectangle_22" data-name="Rectangle 22" class="cls-2" transform="translate(0 9.069)">
    <path class="cls-3" d="M0,0H24.392a1,1,0,0,1,1,1V12.323a4,4,0,0,1-4,4H4a4,4,0,0,1-4-4V0A0,0,0,0,1,0,0Z"/>
    <path class="cls-4" d="M2,1H24.392a0,0,0,0,1,0,0V12.323a3,3,0,0,1-3,3H4a3,3,0,0,1-3-3V2A1,1,0,0,1,2,1Z"/>
  </g>
</svg>
